#tb 0: 1/25
0,          0,          0,        1,   304128, 0x5ac6231e
0,          1,          1,        1,   304128, 0x4ea3ca2e
0,          2,          2,        1,   304128, 0x1b717de7
0,          3,          3,        1,   304128, 0xf9e75bba
0,          4,          4,        1,   304128, 0xb3b3160d
